<svg width="1002" height="469" viewBox="0 0 1002 469" fill="none" xmlns="http://www.w3.org/2000/svg">
<path d="M256.581 194.22C257.193 249.507 306.768 267.868 307.176 268.072C306.768 269.296 299.22 294.39 281.062 320.095C265.353 342.333 249.032 364.57 223.327 364.978C198.029 365.386 189.869 350.493 161.103 350.493C132.133 350.493 123.157 364.57 99.2874 365.386C74.3978 366.202 55.6287 341.313 39.7157 319.075C7.27776 273.785 -17.4077 190.956 15.8463 135.056C32.3713 107.311 61.9531 89.7654 93.983 89.1534C118.261 88.7454 141.314 105.066 156.207 105.066C171.1 105.066 199.049 85.4812 228.427 88.3373C240.668 88.7454 275.35 93.2336 297.383 124.652C295.547 125.672 256.173 147.909 256.581 194.22ZM209.046 58.3475C222.307 42.8426 231.079 21.4213 228.631 -3.05176e-05C209.658 0.816019 186.605 12.2407 173.14 27.7457C160.899 41.4145 150.29 63.2438 153.147 84.2571C174.364 85.8892 195.989 73.8525 209.046 58.3475ZM399.902 31.8565C409.604 30.2448 420.544 28.831 432.311 27.4192C444.079 26.0075 457.08 25.4036 471.116 25.4036C491.346 25.4036 508.685 27.8232 523.341 32.4624C537.998 37.2996 549.969 43.9544 559.464 53.0269C567.514 60.8916 573.914 70.3679 578.455 81.0541C582.997 91.9423 585.267 104.444 585.267 118.558C585.267 135.697 582.17 150.618 575.979 163.522C569.787 176.426 561.322 187.114 550.589 195.785C539.856 204.455 527.056 210.908 512.194 215.343C497.332 219.576 481.231 221.796 463.686 221.796C447.794 221.796 434.582 220.586 423.847 218.369V360.319H400.11V31.8565H399.902ZM423.641 197.598C429.42 199.212 435.82 200.422 442.838 201.026C449.856 201.63 457.492 202.035 465.545 202.035C495.887 202.035 519.212 195.181 535.933 181.267C552.652 167.557 560.908 147.191 560.908 120.573C560.908 107.67 558.64 96.5815 554.304 87.1031C549.969 77.6247 543.777 69.762 535.727 63.7151C527.677 57.6682 517.974 53.0269 507.035 50.0034C495.887 46.9779 483.708 45.3662 470.084 45.3662C459.353 45.3662 450.062 45.7681 442.218 46.576C434.374 47.3839 428.182 48.3917 423.641 49.1976V197.598ZM773.934 304.06C773.934 313.538 774.14 323.217 774.346 332.693C774.76 342.172 775.79 351.446 777.443 360.316H755.15L751.641 326.848H750.609C747.512 331.485 743.795 336.125 739.048 340.558C734.144 345.377 728.667 349.576 722.741 353.062C716.549 356.891 709.531 359.917 701.481 362.134C693.637 364.352 684.966 365.562 675.471 365.562C663.706 365.562 653.385 363.746 644.508 359.917C635.632 356.087 628.202 351.246 622.628 345.197C616.848 339.148 612.513 332.091 609.83 324.227C606.942 316.364 605.495 308.499 605.495 300.637C605.495 272.61 617.469 251.235 641.62 236.114C665.771 220.992 701.893 213.734 750.401 214.337V207.885C750.401 201.634 749.783 194.577 748.545 186.512C747.306 178.448 744.829 170.783 740.7 163.526C736.571 156.269 730.585 150.216 722.535 145.377C714.485 140.538 703.545 137.918 689.715 137.918C679.188 137.918 668.865 139.53 658.753 142.556C648.781 145.466 639.314 149.886 630.68 155.661L623.042 138.32C633.773 131.062 644.923 126.02 656.276 122.795C667.627 119.77 679.601 118.158 692.192 118.158C709.117 118.158 722.741 120.981 733.268 126.624C743.795 132.267 752.26 139.53 758.245 148.403C764.231 157.275 768.36 167.155 770.631 178.244C772.902 189.332 773.934 200.222 773.934 211.11V304.06ZM750.195 233.692C737.397 233.288 723.979 233.894 710.149 235.104C696.113 236.514 683.316 239.337 671.55 243.774C659.785 248.212 650.082 254.663 642.238 263.331C634.602 271.8 630.678 283.294 630.678 297.407C630.678 314.144 635.634 326.442 645.335 334.307C655.035 342.172 665.977 346.203 678.156 346.203C687.857 346.203 696.734 344.791 704.372 342.172C712.01 339.552 718.82 335.921 724.6 331.483C730.379 327.046 735.127 322.007 739.048 316.362C742.969 310.717 745.862 305.07 747.924 299.021C749.577 292.368 750.401 287.729 750.401 284.705L750.195 233.692ZM820.171 123.599L881.685 277.445C884.986 285.915 888.289 294.786 891.386 303.86C894.483 312.935 897.166 321.201 899.436 328.862H900.468C902.739 321.603 905.422 313.54 908.519 304.466C911.616 295.392 914.919 286.117 918.634 276.639L976.224 123.801H1001.41L931.225 297.407C924.207 315.756 917.393 332.493 911.202 347.413C905.01 362.332 898.61 375.844 892.212 387.942C885.814 400.04 879.414 410.526 872.808 419.8C866.203 429.075 858.976 437.141 850.928 443.996C841.433 452.263 832.763 458.312 824.919 461.941C817.074 465.772 811.709 468.192 809.026 469L800.974 449.843C806.961 447.222 813.773 443.794 821.204 439.561C828.634 435.328 835.86 429.681 842.878 422.824C848.864 416.977 855.676 409.114 862.9 399.434C870.124 389.753 876.524 378.061 882.303 364.148C884.368 358.905 885.4 355.477 885.4 353.866C885.4 351.648 884.368 348.019 882.303 343.583L794.99 124.203H820.173L820.171 123.599Z" fill="white"/>
</svg>
