<svg width="68" height="69" viewBox="0 0 68 69" fill="none" xmlns="http://www.w3.org/2000/svg">
<path d="M47.0794 29.053C46.1054 29.053 45.1712 29.44 44.4824 30.1287C43.7936 30.8175 43.4067 31.7517 43.4067 32.7258V29.053C43.4067 28.0155 42.9945 27.0204 42.2609 26.2868C41.5272 25.5532 40.5322 25.141 39.4946 25.141C38.4571 25.141 37.4621 25.5532 36.7284 26.2868C35.9948 27.0204 35.5826 28.0155 35.5826 29.053C35.5826 28.0155 35.1705 27.0204 34.4368 26.2868C33.7032 25.5532 32.7082 25.141 31.6706 25.141C30.6331 25.141 29.6381 25.5532 28.9044 26.2868C28.1708 27.0204 27.7586 28.0155 27.7586 29.053V11.5616C27.7885 11.0969 27.7228 10.631 27.5656 10.1927C27.4084 9.75445 27.1629 9.35307 26.8444 9.0134C26.5259 8.67374 26.1411 8.403 25.7138 8.21791C25.2866 8.03283 24.8259 7.93734 24.3602 7.93734C23.8946 7.93734 23.4339 8.03283 23.0066 8.21791C22.5794 8.403 22.1946 8.67374 21.8761 9.0134C21.5576 9.35307 21.3121 9.75445 21.1549 10.1927C20.9976 10.631 20.9319 11.0969 20.9619 11.5616V37.4962C20.9594 35.0849 20.1961 32.736 18.7807 30.7839C18.0291 29.6778 16.9031 28.8806 15.6101 28.5393C14.3171 28.1979 12.9443 28.3354 11.7447 28.9264C11.4788 29.0612 11.2427 29.2482 11.0506 29.4762C10.8584 29.7041 10.714 29.9684 10.6261 30.2533C10.5381 30.5382 10.5083 30.8379 10.5385 31.1345C10.5688 31.4311 10.6583 31.7187 10.8019 31.98L13.9118 37.6088C15.3315 40.2473 16.4366 43.0433 17.2046 45.9394C18.3536 50.1003 21.0195 53.6799 24.6769 55.9727C27.511 57.795 30.806 58.7713 34.1754 58.7871H40.0012C42.8365 58.7834 45.5546 57.6554 47.5594 55.6506C49.5643 53.6457 50.6922 50.9277 50.6959 48.0924V32.6836C50.685 31.7265 50.301 30.8115 49.6255 30.1334C48.95 29.4553 48.0365 29.0676 47.0794 29.053Z" fill="#FFE500"/>
<path d="M11.2803 32.9369C11.4102 32.8317 11.5519 32.742 11.7025 32.6695C12.974 32.02 14.4302 31.8278 15.8267 32.125C17.2232 32.4222 18.4749 33.1909 19.3717 34.3019C20.0899 35.2621 20.6287 36.3443 20.9619 37.4962C20.9594 35.085 20.1961 32.736 18.7807 30.7839C18.0291 29.6778 16.9031 28.8806 15.6101 28.5393C14.3171 28.1979 12.9443 28.3354 11.7447 28.9264C11.4788 29.0612 11.2427 29.2482 11.0506 29.4762C10.8584 29.7042 10.714 29.9684 10.6261 30.2533C10.5381 30.5382 10.5083 30.8379 10.5385 31.1345C10.5688 31.4312 10.6583 31.7187 10.8019 31.98L11.2803 32.9369Z" fill="#FFF48C"/>
<path d="M24.3532 11.8571C24.7998 11.8552 25.2423 11.9416 25.6553 12.1112C26.0684 12.2808 26.444 12.5303 26.7604 12.8454C27.0768 13.1605 27.3278 13.535 27.4991 13.9473C27.6705 14.3597 27.7586 14.8019 27.7586 15.2484V11.5615C27.7885 11.0969 27.7229 10.631 27.5656 10.1927C27.4084 9.75444 27.1629 9.35306 26.8444 9.0134C26.5259 8.67373 26.1411 8.40299 25.7138 8.21791C25.2866 8.03282 24.8259 7.93733 24.3602 7.93733C23.8946 7.93733 23.4339 8.03282 23.0067 8.21791C22.5794 8.40299 22.1946 8.67373 21.8761 9.0134C21.5576 9.35306 21.3121 9.75444 21.1549 10.1927C20.9976 10.631 20.932 11.0969 20.9619 11.5615V15.2484C20.9619 14.349 21.3192 13.4864 21.9552 12.8504C22.5912 12.2144 23.4538 11.8571 24.3532 11.8571V11.8571Z" fill="#FFF48C"/>
<path d="M47.0794 29.053C46.1053 29.053 45.1711 29.4399 44.4823 30.1287C43.7936 30.8175 43.4066 31.7517 43.4066 32.7258V29.053C43.4066 28.0154 42.9945 27.0204 42.2608 26.2868C41.5272 25.5531 40.5321 25.141 39.4946 25.141C38.4571 25.141 37.462 25.5531 36.7284 26.2868C35.9947 27.0204 35.5826 28.0154 35.5826 29.053C35.5826 28.0154 35.1704 27.0204 34.4368 26.2868C33.7031 25.5531 32.7081 25.141 31.6706 25.141C30.6331 25.141 29.638 25.5531 28.9044 26.2868C28.1707 27.0204 27.7586 28.0154 27.7586 29.053V32.4021C27.7586 31.8884 27.8598 31.3797 28.0564 30.905C28.253 30.4304 28.5411 29.9992 28.9044 29.6359C29.2676 29.2726 29.6989 28.9845 30.1735 28.7879C30.6482 28.5913 31.1569 28.4901 31.6706 28.4901C32.1843 28.4901 32.693 28.5913 33.1676 28.7879C33.6423 28.9845 34.0735 29.2726 34.4368 29.6359C34.8001 29.9992 35.0882 30.4304 35.2848 30.905C35.4814 31.3797 35.5826 31.8884 35.5826 32.4021C35.5826 31.3646 35.9947 30.3695 36.7284 29.6359C37.462 28.9023 38.4571 28.4901 39.4946 28.4901C40.5597 28.5684 41.5556 29.0475 42.2815 29.8309C43.0075 30.6143 43.4095 31.6437 43.4066 32.7117V33.1901C43.4066 31.1638 45.2922 30.3757 47.0794 30.6572C48.1077 30.9075 49.0249 31.4899 49.6888 32.3141C50.3528 33.1383 50.7265 34.1584 50.7522 35.2165V35.2165V32.6835C50.7411 31.7168 50.3492 30.7934 49.6616 30.1137C48.974 29.4341 48.0462 29.0529 47.0794 29.053Z" fill="#FFF48C"/>
<path d="M47.0794 29.053C46.1054 29.053 45.1712 29.44 44.4824 30.1287C43.7936 30.8175 43.4067 31.7517 43.4067 32.7258V29.053C43.4067 28.0155 42.9945 27.0204 42.2609 26.2868C41.5272 25.5532 40.5322 25.141 39.4946 25.141C38.4571 25.141 37.4621 25.5532 36.7284 26.2868C35.9948 27.0204 35.5826 28.0155 35.5826 29.053C35.5826 28.0155 35.1705 27.0204 34.4368 26.2868C33.7032 25.5532 32.7082 25.141 31.6706 25.141C30.6331 25.141 29.6381 25.5532 28.9044 26.2868C28.1708 27.0204 27.7586 28.0155 27.7586 29.053V11.5616C27.7885 11.0969 27.7228 10.631 27.5656 10.1927C27.4084 9.75445 27.1629 9.35307 26.8444 9.0134C26.5259 8.67374 26.1411 8.403 25.7138 8.21791C25.2866 8.03283 24.8259 7.93734 24.3602 7.93734C23.8946 7.93734 23.4339 8.03283 23.0066 8.21791C22.5794 8.403 22.1946 8.67374 21.8761 9.0134C21.5576 9.35307 21.3121 9.75445 21.1549 10.1927C20.9976 10.631 20.9319 11.0969 20.9619 11.5616V37.4962C20.9594 35.0849 20.1961 32.736 18.7807 30.7839C18.0291 29.6778 16.9031 28.8806 15.6101 28.5393C14.3171 28.1979 12.9443 28.3354 11.7447 28.9264C11.4788 29.0612 11.2427 29.2482 11.0506 29.4762C10.8584 29.7041 10.714 29.9684 10.6261 30.2533C10.5381 30.5382 10.5083 30.8379 10.5385 31.1345C10.5688 31.4311 10.6583 31.7187 10.8019 31.98L13.9118 37.6088C15.3315 40.2473 16.4366 43.0433 17.2046 45.9394C18.3536 50.1003 21.0195 53.6799 24.6769 55.9727C27.511 57.795 30.806 58.7713 34.1754 58.7871H40.0012C42.8365 58.7834 45.5546 57.6554 47.5594 55.6506C49.5643 53.6457 50.6922 50.9277 50.6959 48.0924V32.6836C50.685 31.7265 50.301 30.8115 49.6255 30.1334C48.95 29.4553 48.0365 29.0676 47.0794 29.053Z" stroke="#45413C" stroke-width="1.4072" stroke-linecap="round" stroke-linejoin="round"/>
<path d="M35.5827 29.0108V31.9659" stroke="#45413C" stroke-width="1.4072" stroke-linecap="round" stroke-linejoin="round"/>
<path d="M27.7586 29.0108V31.9659" stroke="#45413C" stroke-width="1.4072" stroke-linecap="round" stroke-linejoin="round"/>
<path d="M20.9619 37.5384V40.1558" stroke="#45413C" stroke-width="1.4072" stroke-linecap="round" stroke-linejoin="round"/>
<path opacity="0.15" d="M18.6118 64.9365C18.6118 65.4964 20.2426 66.0332 23.1455 66.4291C26.0484 66.825 29.9856 67.0473 34.091 67.0473C38.1963 67.0473 42.1335 66.825 45.0364 66.4291C47.9393 66.0332 49.5701 65.4964 49.5701 64.9365C49.5701 64.3767 47.9393 63.8398 45.0364 63.444C42.1335 63.0481 38.1963 62.8257 34.091 62.8257C29.9856 62.8257 26.0484 63.0481 23.1455 63.444C20.2426 63.8398 18.6118 64.3767 18.6118 64.9365V64.9365Z" fill="#45413C"/>
</svg>
