<svg width="1024" height="1024" viewBox="0 0 1024 1024" fill="none" xmlns="http://www.w3.org/2000/svg">
<path d="M337.85 236.336C338.973 236.335 340.095 236.335 341.252 236.335C344.953 236.336 348.653 236.344 352.354 236.351C354.924 236.353 357.494 236.355 360.064 236.356C366.13 236.359 372.197 236.367 378.263 236.377C385.173 236.388 392.082 236.394 398.991 236.399C413.198 236.409 427.405 236.427 441.612 236.449C440.952 240.409 440.292 244.369 439.612 248.449C438.207 248.451 436.802 248.452 435.354 248.453C422.055 248.47 408.757 248.513 395.459 248.581C388.623 248.616 381.788 248.641 374.953 248.645C368.345 248.648 361.738 248.678 355.131 248.723C352.621 248.735 350.111 248.74 347.601 248.735C328.88 248.709 313.056 249.689 297.612 261.449C296.812 262.056 296.011 262.663 295.186 263.289C284.852 271.782 278.239 284.367 275.612 297.449C275.503 299.743 275.451 302.04 275.431 304.337C275.424 305.03 275.417 305.722 275.41 306.436C275.387 308.756 275.371 311.077 275.356 313.398C275.341 315.062 275.327 316.726 275.312 318.39C275.181 333.563 275.115 348.737 275.064 363.911C275.025 375.125 274.956 386.339 274.849 397.553C274.776 405.441 274.738 413.329 274.725 421.218C274.716 425.928 274.692 430.638 274.63 435.348C274.573 439.78 274.558 444.21 274.576 448.642C274.575 450.266 274.559 451.891 274.526 453.515C274.112 462.258 274.112 462.258 277.602 469.933C279.863 471.705 282.089 473.088 284.612 474.449C293.888 482.858 300.635 495.393 301.983 507.887C302.269 523.215 297.747 535.49 287.339 546.953C281.425 553.073 281.425 553.073 278.013 554.651C275.311 556.263 275.311 556.263 274.986 559.416C274.985 560.64 274.985 561.864 274.984 563.125C274.973 564.148 274.973 564.148 274.962 565.192C274.945 567.484 274.963 569.774 274.981 572.065C274.976 573.706 274.969 575.348 274.959 576.989C274.941 581.454 274.954 585.92 274.973 590.385C274.99 595.067 274.981 599.748 274.976 604.43C274.971 612.305 274.987 620.181 275.015 628.056C275.047 637.13 275.047 646.204 275.03 655.279C275.014 664.027 275.021 672.775 275.038 681.524C275.045 685.235 275.044 688.946 275.036 692.657C275.029 697.047 275.041 701.436 275.068 705.826C275.075 707.425 275.075 709.025 275.068 710.625C274.991 729.884 279.582 746.575 293.491 760.648C304.466 770.985 320.135 776.559 335.053 776.583C336.337 776.588 337.621 776.592 338.944 776.597C340.361 776.597 341.779 776.597 343.197 776.596C344.708 776.6 346.22 776.603 347.732 776.607C351.883 776.617 356.035 776.621 360.186 776.624C364.665 776.628 369.143 776.637 373.622 776.646C384.438 776.666 395.253 776.676 406.069 776.685C411.166 776.689 416.264 776.694 421.361 776.7C438.314 776.717 455.267 776.731 472.22 776.738C476.617 776.74 481.015 776.742 485.412 776.744C487.052 776.745 487.052 776.745 488.724 776.746C506.419 776.754 524.113 776.779 541.807 776.812C559.987 776.845 578.167 776.863 596.347 776.866C606.548 776.868 616.75 776.877 626.952 776.903C635.642 776.924 644.333 776.932 653.024 776.923C657.453 776.918 661.882 776.92 666.311 776.939C670.377 776.957 674.442 776.956 678.508 776.94C679.968 776.938 681.428 776.942 682.889 776.954C701.312 777.096 718.75 772.846 732.362 759.801C746.429 745.099 750.052 729.447 750.111 709.608C750.127 707.945 750.144 706.281 750.161 704.617C750.205 700.134 750.228 695.651 750.246 691.168C750.257 688.362 750.271 685.557 750.286 682.751C750.332 673.958 750.366 665.166 750.382 656.373C750.401 646.247 750.463 636.122 750.561 625.997C750.634 618.148 750.669 610.299 750.675 602.449C750.68 597.769 750.7 593.091 750.761 588.411C750.817 584.014 750.826 579.62 750.798 575.223C750.796 573.613 750.811 572.004 750.845 570.395C751.19 561.525 751.19 561.525 747.439 553.799C744.921 551.782 742.357 550.134 739.612 548.449C731.401 540.794 724.828 529.22 724.276 517.875C724.109 508.417 724.102 500.005 728.612 491.449C729.025 490.615 729.437 489.781 729.862 488.922C734.004 481.286 740.057 473.965 747.726 469.73C750.878 467.719 750.878 467.719 751.362 464.391C751.361 463.182 751.361 461.974 751.361 460.729C751.369 460.054 751.377 459.379 751.385 458.684C751.404 456.423 751.38 454.164 751.357 451.903C751.362 450.281 751.369 448.66 751.379 447.038C751.398 442.63 751.379 438.223 751.352 433.815C751.33 429.193 751.338 424.57 751.342 419.947C751.344 412.172 751.321 404.397 751.285 396.621C751.242 387.663 751.235 378.706 751.248 369.748C751.259 361.109 751.248 352.47 751.225 343.831C751.216 340.167 751.214 336.504 751.219 332.84C751.222 328.507 751.206 324.175 751.174 319.842C751.166 318.263 751.164 316.684 751.17 315.105C751.223 297.324 747.381 279.754 734.749 266.355C721.031 254.117 706.424 249.169 688.196 249.13C687.102 249.12 686.008 249.11 684.881 249.1C681.299 249.069 677.717 249.052 674.136 249.035C671.639 249.016 669.142 248.997 666.645 248.976C660.099 248.925 653.553 248.885 647.007 248.848C640.316 248.809 633.626 248.757 626.936 248.707C613.828 248.61 600.72 248.526 587.612 248.449C586.952 244.489 586.292 240.529 585.612 236.449C600.052 236.356 614.492 236.285 628.931 236.242C635.638 236.221 642.344 236.193 649.051 236.147C655.535 236.104 662.019 236.08 668.503 236.07C670.964 236.062 673.426 236.048 675.888 236.026C692.504 235.885 709.067 236.024 724.05 244.199C725.033 244.716 725.033 244.716 726.036 245.243C731.777 248.352 736.853 251.965 741.612 256.449C742.379 257.163 743.146 257.877 743.936 258.613C748.586 263.334 751.928 268.339 754.925 274.199C755.395 275.109 755.395 275.109 755.874 276.037C761.936 288.62 763.215 300.59 763.209 314.283C763.223 316.029 763.238 317.775 763.255 319.521C763.294 324.219 763.308 328.916 763.314 333.614C763.319 336.554 763.33 339.493 763.342 342.432C763.385 352.697 763.406 362.961 763.408 373.225C763.411 382.782 763.462 392.337 763.535 401.893C763.596 410.117 763.622 418.341 763.622 426.566C763.622 431.47 763.636 436.374 763.686 441.278C763.731 445.881 763.734 450.483 763.703 455.087C763.699 456.775 763.711 458.462 763.739 460.149C763.937 472.903 763.937 472.903 760.683 476.699C758.382 478.245 756.139 479.326 753.612 480.449C744.9 486.792 738.745 495.786 736.612 506.449C735.383 518.057 738.681 528.134 745.612 537.449C749.384 541.539 753.409 544.379 758.263 547.053C759.077 547.502 759.89 547.951 760.728 548.414C761.35 548.756 761.972 549.097 762.612 549.449C762.659 572.076 762.694 594.703 762.716 617.331C762.726 627.838 762.74 638.344 762.763 648.851C762.783 658.012 762.796 667.173 762.8 676.333C762.803 681.181 762.809 686.029 762.824 690.877C762.837 695.446 762.841 700.015 762.838 704.585C762.839 706.255 762.843 707.926 762.851 709.597C762.948 731.7 757.799 751.531 742.194 768.066C728.513 780.692 711.659 788.554 692.918 788.583C691.603 788.588 690.288 788.592 688.933 788.597C687.485 788.597 686.038 788.597 684.59 788.596C683.043 788.6 681.496 788.603 679.949 788.607C675.705 788.617 671.461 788.621 667.217 788.624C662.637 788.628 658.056 788.637 653.476 788.646C642.419 788.666 631.362 788.676 620.305 788.685C615.094 788.689 609.884 788.694 604.673 788.7C587.345 788.717 570.017 788.731 552.69 788.738C548.196 788.74 543.702 788.742 539.209 788.744C538.092 788.745 536.975 788.745 535.824 788.746C517.734 788.754 499.644 788.779 481.555 788.812C462.97 788.845 444.386 788.863 425.801 788.866C415.371 788.868 404.942 788.877 394.512 788.903C385.63 788.924 376.747 788.932 367.865 788.923C363.336 788.918 358.808 788.92 354.28 788.939C350.126 788.957 345.973 788.956 341.82 788.94C340.325 788.938 338.83 788.942 337.336 788.954C324.566 789.05 312.945 786.736 301.487 780.887C300.824 780.55 300.161 780.213 299.477 779.867C283.872 771.519 271.903 756.43 266.39 739.75C264.171 732.141 262.504 725.201 262.404 717.258C262.394 716.545 262.384 715.831 262.374 715.097C262.342 712.712 262.317 710.328 262.292 707.944C262.271 706.232 262.25 704.52 262.229 702.808C262.041 687.207 261.938 671.604 261.856 656.001C261.795 644.472 261.691 632.945 261.534 621.416C261.427 613.304 261.369 605.192 261.348 597.079C261.334 592.236 261.298 587.394 261.207 582.551C261.123 577.994 261.1 573.441 261.123 568.883C261.122 567.214 261.097 565.545 261.049 563.876C260.909 558.779 260.968 554.311 262.612 549.449C265.806 546.45 268.424 544.905 272.375 543.039C279.63 539.476 283.906 532.89 286.921 525.59C290.02 515.995 289.833 505.277 285.936 495.98C281.261 487.043 274.622 481.281 265.975 476.362C264.866 475.731 263.756 475.1 262.612 474.449C262.542 452.004 262.489 429.559 262.457 407.114C262.441 396.691 262.42 386.269 262.386 375.846C262.356 366.757 262.337 357.667 262.33 348.578C262.326 343.77 262.317 338.962 262.295 334.153C262.274 329.618 262.268 325.082 262.273 320.546C262.272 318.891 262.266 317.236 262.255 315.581C262.106 293.312 267.594 273.88 283.237 257.262C298.526 242.786 316.976 236.264 337.85 236.336Z" fill="#E1E1E0"/>
<path d="M523.313 215.063C529.166 218.366 533.443 222.385 535.375 228.938C535.684 230.453 535.684 230.453 536 232C536.701 232.026 537.403 232.052 538.125 232.078C546.54 232.581 552.602 234.053 558.375 240.438C562.689 245.97 563.233 250.122 563 257C563.701 257.083 564.403 257.165 565.125 257.25C569.455 258.38 572.562 260.661 575.813 263.688C577.684 267.333 578.113 270.923 578 275C576.389 279.742 574.125 282.215 570 285C566.502 286.166 563.638 286.213 559.945 286.316C559.204 286.337 558.463 286.359 557.7 286.38C555.175 286.448 552.65 286.507 550.125 286.562C549.247 286.582 548.37 286.602 547.465 286.622C539.977 286.781 532.489 286.895 525 287C524.32 287.01 523.64 287.02 522.94 287.03C513.73 287.164 504.52 287.27 495.31 287.327C491.39 287.351 487.471 287.382 483.551 287.435C479.807 287.484 476.063 287.508 472.317 287.514C470.923 287.52 469.528 287.535 468.134 287.559C456.105 287.756 456.105 287.756 452.196 284.593C448.293 279.985 447.383 276.61 447.481 270.609C448.406 265.959 451.431 262.96 455 260C458.103 258.094 459.146 258 463 258C462.93 257.147 462.93 257.147 462.859 256.277C462.587 250.448 463.257 246.561 467 242C472.111 236.854 476.395 233.9 483.75 233.375C484.735 233.3 485.72 233.225 486.734 233.148C487.482 233.099 488.23 233.05 489 233C489.041 232.175 489.083 231.35 489.125 230.5C490.734 224.063 494.642 219.603 500.188 216.063C507.522 211.795 515.591 211.494 523.313 215.063Z" fill="#775BD7"/>
<path d="M499 299C507.91 299 516.82 299 526 299C526.236 315.127 525.391 331.197 524.609 347.299C524.426 351.107 524.246 354.916 524.067 358.725C523.716 366.15 523.359 373.575 523 381C516.07 381 509.14 381 502 381C501.604 373.262 501.212 365.524 500.827 357.785C500.648 354.189 500.467 350.593 500.282 346.998C499.459 330.988 498.812 315.037 499 299Z" fill="#775CD8"/>
<path d="M544 300C552.58 300 561.16 300 570 300C568.904 306.154 567.805 312.308 566.699 318.461C565.563 324.794 564.454 331.131 563.357 337.47C562.569 342.008 561.772 346.544 560.974 351.08C560.575 353.36 560.18 355.64 559.788 357.922C559.231 361.169 558.66 364.412 558.086 367.656C557.92 368.641 557.755 369.625 557.584 370.639C557.42 371.55 557.256 372.462 557.087 373.4C556.949 374.195 556.811 374.99 556.669 375.809C555.868 378.433 554.901 380.022 553 382C550.13 382.296 547.662 382.379 544.813 382.25C544.063 382.232 543.313 382.214 542.541 382.195C540.694 382.148 538.847 382.076 537 382C536.838 374.221 537.343 366.574 538.023 358.828C538.183 356.968 538.183 356.968 538.345 355.07C538.57 352.458 538.797 349.846 539.026 347.234C539.373 343.277 539.71 339.318 540.047 335.359C540.268 332.807 540.489 330.255 540.711 327.703C540.81 326.538 540.909 325.373 541.011 324.173C541.73 316.058 542.794 308.057 544 300Z" fill="#775BD7"/>
<path d="M456 299C464.25 299 472.5 299 481 299C481.973 301.918 482.291 304.287 482.557 307.338C482.653 308.43 482.75 309.522 482.85 310.647C482.951 311.828 483.052 313.01 483.156 314.227C483.263 315.444 483.371 316.661 483.481 317.916C483.824 321.818 484.162 325.722 484.5 329.625C484.839 333.507 485.178 337.388 485.519 341.27C485.731 343.686 485.941 346.103 486.15 348.519C486.573 353.375 487.01 358.225 487.566 363.068C487.993 366.937 488.1 370.672 488.062 374.562C488.053 375.781 488.044 376.999 488.035 378.254C488.024 379.16 488.012 380.066 488 381C485.395 381.108 482.794 381.187 480.188 381.25C479.45 381.284 478.712 381.317 477.951 381.352C475.793 381.391 475.793 381.391 472 381C468.853 377.917 468.34 374.761 467.641 370.508C467.531 369.861 467.42 369.215 467.307 368.549C466.945 366.409 466.597 364.267 466.25 362.125C465.869 359.85 465.483 357.575 465.098 355.301C464.827 353.704 464.557 352.107 464.288 350.51C463.272 344.497 462.181 338.501 461.055 332.508C460.893 331.648 460.732 330.788 460.566 329.902C459.931 326.519 459.294 323.136 458.649 319.755C458.201 317.405 457.76 315.054 457.32 312.703C457.186 312.011 457.052 311.318 456.914 310.605C456.166 306.574 456 303.176 456 299Z" fill="#785CD8"/>
<path d="M318.941 593.99V587.364H353.756V593.99H340.269V631H332.428V593.99H318.941ZM372.468 631V587.364H380.373V605.837H400.593V587.364H408.519V631H400.593V612.463H380.373V631H372.468ZM429.116 631V587.364H457.497V593.99H437.021V605.837H456.027V612.463H437.021V624.374H457.668V631H429.116ZM483.165 631H474.728L490.09 587.364H499.849L515.232 631H506.795L495.14 596.312H494.799L483.165 631ZM483.442 613.891H506.454V620.24H483.442V613.891ZM525.789 593.99V587.364H560.604V593.99H547.117V631H539.276V593.99H525.789ZM579.316 631V587.364H607.696V593.99H587.221V605.837H606.226V612.463H587.221V624.374H607.867V631H579.316ZM627.761 631V587.364H644.125C647.477 587.364 650.289 587.946 652.562 589.111C654.849 590.276 656.575 591.909 657.74 594.011C658.919 596.099 659.508 598.536 659.508 601.32C659.508 604.118 658.912 606.547 657.718 608.607C656.539 610.652 654.799 612.236 652.498 613.358C650.197 614.466 647.37 615.02 644.018 615.02H632.363V608.457H642.953C644.913 608.457 646.518 608.187 647.768 607.648C649.018 607.094 649.941 606.291 650.538 605.24C651.149 604.175 651.454 602.868 651.454 601.32C651.454 599.771 651.149 598.45 650.538 597.357C649.927 596.249 648.997 595.411 647.747 594.842C646.497 594.26 644.885 593.969 642.91 593.969H635.666V631H627.761ZM650.304 611.227L661.106 631H652.285L641.674 611.227H650.304ZM702.499 599.359C702.3 597.499 701.462 596.05 699.985 595.013C698.522 593.976 696.618 593.457 694.275 593.457C692.627 593.457 691.213 593.706 690.034 594.203C688.855 594.7 687.953 595.375 687.328 596.227C686.703 597.08 686.384 598.053 686.37 599.146C686.37 600.055 686.576 600.844 686.988 601.511C687.414 602.179 687.989 602.747 688.713 603.216C689.438 603.67 690.24 604.054 691.121 604.366C692.002 604.679 692.89 604.942 693.784 605.155L697.875 606.178C699.523 606.561 701.107 607.08 702.627 607.733C704.161 608.386 705.532 609.21 706.739 610.205C707.961 611.199 708.926 612.399 709.637 613.805C710.347 615.212 710.702 616.859 710.702 618.749C710.702 621.305 710.049 623.557 708.742 625.503C707.435 627.435 705.546 628.947 703.074 630.041C700.617 631.121 697.641 631.661 694.147 631.661C690.752 631.661 687.804 631.135 685.304 630.084C682.819 629.033 680.873 627.499 679.466 625.482C678.074 623.464 677.321 621.007 677.208 618.109H684.985C685.098 619.629 685.567 620.893 686.391 621.902C687.215 622.911 688.287 623.663 689.608 624.161C690.944 624.658 692.435 624.906 694.083 624.906C695.801 624.906 697.307 624.651 698.6 624.139C699.907 623.614 700.929 622.889 701.668 621.966C702.407 621.028 702.783 619.935 702.797 618.685C702.783 617.548 702.449 616.611 701.796 615.872C701.142 615.119 700.226 614.494 699.047 613.997C697.882 613.486 696.519 613.031 694.956 612.634L689.992 611.355C686.398 610.432 683.557 609.033 681.469 607.158C679.395 605.268 678.358 602.761 678.358 599.636C678.358 597.065 679.054 594.814 680.446 592.882C681.853 590.95 683.763 589.452 686.178 588.386C688.593 587.307 691.327 586.767 694.381 586.767C697.478 586.767 700.191 587.307 702.52 588.386C704.864 589.452 706.703 590.936 708.039 592.839C709.374 594.729 710.063 596.902 710.105 599.359H702.499Z" fill="#E3E3E2"/>
<path d="M351.44 555H321.781L366.972 424.091H402.64L447.768 555H418.109L385.318 454.006H384.295L351.44 555ZM349.586 503.544H419.643V525.149H349.586V503.544ZM463.524 555V424.091H515.939C525.57 424.091 533.602 425.518 540.037 428.374C546.472 431.229 551.308 435.192 554.547 440.263C557.786 445.291 559.405 451.087 559.405 457.649C559.405 462.763 558.382 467.259 556.337 471.136C554.291 474.972 551.479 478.125 547.899 480.597C544.362 483.026 540.314 484.751 535.754 485.774V487.053C540.74 487.266 545.406 488.672 549.753 491.271C554.142 493.871 557.7 497.514 560.428 502.202C563.155 506.847 564.519 512.386 564.519 518.821C564.519 525.767 562.793 531.967 559.341 537.422C555.932 542.834 550.882 547.116 544.192 550.27C537.502 553.423 529.256 555 519.455 555H463.524ZM491.202 532.372H513.766C521.479 532.372 527.104 530.902 530.641 527.962C534.178 524.979 535.946 521.016 535.946 516.072C535.946 512.45 535.073 509.254 533.325 506.484C531.578 503.714 529.085 501.541 525.847 499.964C522.651 498.388 518.837 497.599 514.405 497.599H491.202V532.372ZM491.202 478.871H511.72C515.513 478.871 518.879 478.21 521.82 476.889C524.803 475.526 527.146 473.608 528.851 471.136C530.598 468.665 531.472 465.703 531.472 462.251C531.472 457.521 529.789 453.707 526.422 450.81C523.098 447.912 518.368 446.463 512.232 446.463H491.202V478.871ZM698.032 469.922H670.035C669.524 466.3 668.48 463.082 666.903 460.27C665.327 457.415 663.302 454.986 660.831 452.983C658.359 450.98 655.504 449.446 652.265 448.381C649.069 447.315 645.596 446.783 641.846 446.783C635.071 446.783 629.169 448.466 624.14 451.832C619.112 455.156 615.213 460.014 612.443 466.406C609.673 472.756 608.288 480.469 608.288 489.545C608.288 498.878 609.673 506.719 612.443 513.068C615.256 519.418 619.176 524.212 624.204 527.45C629.233 530.689 635.05 532.308 641.655 532.308C645.362 532.308 648.792 531.818 651.946 530.838C655.142 529.858 657.976 528.43 660.447 526.555C662.919 524.638 664.964 522.315 666.584 519.588C668.246 516.861 669.396 513.75 670.035 510.256L698.032 510.384C697.308 516.392 695.497 522.188 692.599 527.77C689.744 533.31 685.888 538.274 681.03 542.663C676.214 547.01 670.461 550.462 663.771 553.018C657.123 555.533 649.602 556.79 641.207 556.79C629.531 556.79 619.091 554.148 609.886 548.864C600.724 543.58 593.48 535.93 588.153 525.916C582.869 515.902 580.227 503.778 580.227 489.545C580.227 475.27 582.912 463.125 588.281 453.111C593.65 443.097 600.937 435.469 610.142 430.227C619.346 424.943 629.702 422.301 641.207 422.301C648.792 422.301 655.824 423.366 662.301 425.497C668.821 427.628 674.595 430.739 679.623 434.83C684.652 438.878 688.743 443.842 691.896 449.723C695.092 455.604 697.138 462.337 698.032 469.922Z" fill="#E3E3E2"/>
</svg>
